<svg width="184" height="106" viewBox="0 0 184 106" fill="none" xmlns="http://www.w3.org/2000/svg">
<path d="M27.5068 25.18C27.5068 30.58 26.0068 32.44 23.1868 34C26.0068 35.56 27.5068 37.42 27.5068 42.82V49.96C27.5068 52.72 24.2668 55 21.5068 55H11.6668V13H21.5068C24.2668 13 27.5068 15.28 27.5068 18.04V25.18ZM19.2268 31.48C19.2268 31.48 20.4868 29.92 20.4868 24.76C20.4868 19.6 19.2868 18.04 19.2868 18.04H18.2668C18.2668 18.04 18.5068 19.6 18.5068 24.76C18.5068 29.92 18.2668 31.48 18.2668 31.48H19.2268ZM20.4868 43.24C20.4868 38.08 19.2268 36.52 19.2268 36.52H18.2668C18.2668 36.52 18.5068 38.08 18.5068 43.24C18.5068 48.4 18.2668 49.96 18.2668 49.96H19.2868C19.2868 49.96 20.4868 48.4 20.4868 43.24ZM29.7723 55V13H40.3323V18.04H36.9123V31.48H39.7323V36.52H36.9123V49.96H40.3323V55H29.7723ZM54.5026 18.04H51.2626V55H44.1226V18.04H40.9426V13H54.5026V18.04ZM68.6823 18.04H65.4423V55H58.3023V18.04H55.1223V13H68.6823V18.04ZM70.202 55V13H80.762V18.04H77.342V31.48H80.162V36.52H77.342V49.96H80.762V55H70.202ZM98.1123 25.18C98.1123 30.58 96.6123 32.44 93.7923 34C97.5123 34.9 98.1123 41.26 98.1123 55H91.3923C91.3923 39.88 89.8323 36.52 89.8323 36.52H88.8723C89.4123 41.08 89.4123 43 89.4123 55H82.2723V13H92.1123C94.8723 13 98.1123 15.28 98.1123 18.04V25.18ZM89.8323 31.48C89.8323 31.48 91.0923 29.92 91.0923 24.76C91.0923 19.6 89.8923 18.04 89.8923 18.04H88.8723C88.8723 18.04 89.1123 19.6 89.1123 24.76C89.1123 29.92 88.8723 31.48 88.8723 31.48H89.8323ZM109.284 55V13H116.364V49.96H118.344V55H109.284ZM135.848 50.02C135.848 52.78 133.568 55.06 130.808 55.06H124.868C122.108 55.06 119.828 52.78 119.828 50.02V13H126.728V34C126.728 40.54 126.968 45.64 127.268 50.02H128.408C128.648 45.64 128.888 40.54 128.888 34V13H135.848V50.02ZM146.572 17.98H145.432C145.132 22.36 144.892 27.46 144.892 34C144.892 40.54 145.132 45.64 145.432 50.02H146.572C146.812 45.88 146.992 41.08 147.052 34.96H154.012V50.02C154.012 52.78 151.732 55.06 148.972 55.06H143.032C140.272 55.06 137.992 52.78 137.992 50.02V17.98C137.992 15.22 140.272 12.94 143.032 12.94H148.972C151.732 12.94 154.012 15.22 154.012 17.98V32.98H147.052C146.992 26.92 146.812 22.12 146.572 17.98ZM167.796 34C171.516 34.9 172.536 41.26 172.536 55H165.396C165.396 43 165.396 40.96 163.836 36.52H162.876C163.416 41.08 163.416 43 163.416 55H156.276V13H163.416C163.416 25 163.416 26.92 162.876 31.48H163.836C165.396 26.92 165.396 25 165.396 13H172.536C172.536 26.14 171.516 33.1 167.796 34ZM33.909 58C34.809 68.32 36.489 77.86 37.449 84.1H38.409C37.749 77.5 36.549 67.96 35.889 58H43.209V100H34.209C33.369 89.68 31.689 80.14 30.669 73.9H29.709C30.429 80.5 31.569 90.04 32.229 100H24.909V58H33.909ZM45.5926 100V58H56.1526V63.04H52.7326V76.48H55.5526V81.52H52.7326V94.96H56.1526V100H45.5926ZM73.0229 58C73.0229 71.14 72.0029 76.9 69.9029 79C72.0029 81.1 73.0229 86.86 73.0229 100H66.0029C66.0029 88 66.0029 86.2 65.7029 81.52H64.6229C64.3229 86.2 64.3229 88 64.3229 100H57.3029C57.3029 86.86 58.3229 81.1 60.4229 79C58.3229 76.9 57.3029 71.14 57.3029 58H64.3229C64.3229 70 64.3229 71.8 64.6229 76.48H65.7029C66.0029 71.8 66.0029 70 66.0029 58H73.0229ZM87.7252 63.04H84.4852V100H77.3452V63.04H74.1652V58H87.7252V63.04ZM110.928 63.04H107.688V100H100.548V63.04H97.3684V58H110.928V63.04ZM119.528 58V100H112.448V58H119.528ZM139.64 100C139.94 89.86 141.2 80.38 142.16 73.9H141.2C139.94 80.32 138.14 89.92 137.66 100H130.82C130.34 89.92 128.54 80.32 127.28 73.9H126.32C127.28 80.38 128.54 89.86 128.84 100H121.7V58H131.24C131.84 63.82 132.74 71.74 133.76 83.02H134.72C135.74 71.74 136.64 63.82 137.24 58H146.78V100H139.64ZM149.421 100V58H159.981V63.04H156.561V76.48H159.381V81.52H156.561V94.96H159.981V100H149.421Z" fill="#495E10"/>
</svg>
