<svg width="156" height="160" viewBox="0 0 156 160" fill="none" xmlns="http://www.w3.org/2000/svg">
<path d="M153.812 87.0172C155.294 89.2931 156 91.8433 156 94.3649C156 98.919 153.695 103.373 149.499 105.914C145.429 108.38 142.998 112.775 142.998 117.448C142.998 118.02 143.034 118.6 143.111 119.18C143.187 119.769 143.223 120.354 143.223 120.929C143.223 127.77 138.02 133.66 131.025 134.333C128.368 134.588 125.91 135.617 123.906 137.215C121.903 138.811 120.354 140.98 119.515 143.515C117.632 149.193 112.353 152.762 106.711 152.762C105.165 152.762 103.588 152.492 102.05 151.927C100.53 151.366 98.9507 151.094 97.3881 151.094C93.8002 151.094 90.2838 152.528 87.6954 155.202C85.045 157.941 81.5239 159.31 78.0051 159.31C74.4864 159.31 70.9652 157.941 68.3148 155.202C65.7264 152.528 62.21 151.094 58.6221 151.094C57.0595 151.094 55.4803 151.366 53.9606 151.927C52.4195 152.492 50.845 152.762 49.2992 152.762C43.6572 152.762 38.3779 149.193 36.4956 143.515C35.6559 140.98 34.1077 138.811 32.1038 137.215C30.0998 135.619 27.6427 134.591 24.9851 134.333C17.9881 133.663 12.7875 127.77 12.7875 120.929C12.7875 120.351 12.8233 119.767 12.8997 119.18C12.9736 118.6 13.0118 118.023 13.0118 117.448C13.0118 112.772 10.5785 108.378 6.51102 105.914C2.31474 103.373 0.0102539 98.919 0.0102539 94.3649C0.0102539 91.8433 0.716392 89.2931 2.19785 87.0172C3.65545 84.7795 4.38306 82.2174 4.38306 79.6552C4.38306 77.0931 3.65307 74.531 2.19785 72.2933C0.716392 70.0174 0.0102539 67.4672 0.0102539 64.9456C0.0102539 60.3915 2.31474 55.9376 6.51102 53.3969C10.5809 50.9302 13.0118 46.5359 13.0118 41.8625C13.0118 41.29 12.976 40.7103 12.8997 40.1306C12.8233 39.5413 12.7875 38.9569 12.7875 38.3819C12.7875 31.54 17.9905 25.65 24.9851 24.9772C27.6427 24.722 30.0998 23.6938 32.1038 22.0954C34.1077 20.4995 35.6559 18.331 36.4956 15.7951C38.3779 10.1173 43.6572 6.54848 49.2992 6.54848C50.845 6.54848 52.4219 6.81805 53.9606 7.38344C55.4803 7.94405 57.0595 8.21601 58.6221 8.21601C62.21 8.21601 65.7264 6.78227 68.3148 4.10801C70.9652 1.36934 74.4864 0 78.0051 0C81.5239 0 85.045 1.36934 87.6954 4.10801C91.4098 7.94644 97.0398 9.23228 102.05 7.38344C103.591 6.81805 105.165 6.54848 106.711 6.54848C112.353 6.54848 117.632 10.1173 119.515 15.7951C120.354 18.331 121.903 20.4995 123.906 22.0954C125.91 23.6914 128.368 24.7196 131.025 24.9772C138.022 25.6476 143.223 31.54 143.223 38.3819C143.223 38.9593 143.187 39.5437 143.111 40.1306C143.037 40.7103 142.998 41.2876 142.998 41.8625C142.998 46.5383 145.432 50.9326 149.499 53.3969C153.695 55.9376 156 60.3915 156 64.9456C156 67.4672 155.294 70.0174 153.812 72.2933C152.355 74.531 151.625 77.0931 151.625 79.6552C151.625 82.2174 152.355 84.7795 153.812 87.0172Z" fill="#EC2227"/>
<path d="M78.0051 141.063C111.918 141.063 139.41 113.571 139.41 79.6576C139.41 45.7443 111.918 18.2522 78.0051 18.2522C44.0919 18.2522 16.5997 45.7443 16.5997 79.6576C16.5997 113.571 44.0919 141.063 78.0051 141.063Z" fill="#B4E040"/>
<path d="M65.693 116.093L39.3989 89.7964L50.6876 78.5077L64.4644 92.2846L102.388 45.5912L114.782 55.656L65.693 116.093Z" fill="#EC2227"/>
</svg>
