<svg width="264" height="111" viewBox="0 0 264 111" fill="none" xmlns="http://www.w3.org/2000/svg">
<path d="M15.1268 14.98H13.9868C13.6868 19.36 13.4468 24.46 13.4468 31C13.4468 37.54 13.6868 42.64 13.9868 47.02H15.1268C15.3668 42.88 15.5468 38.08 15.6068 31.96H22.5668V47.02C22.5668 49.78 20.2868 52.06 17.5268 52.06H11.5868C8.8268 52.06 6.5468 49.78 6.5468 47.02V14.98C6.5468 12.22 8.8268 9.94 11.5868 9.94H17.5268C20.2868 9.94 22.5668 12.22 22.5668 14.98V29.98H15.6068C15.5468 23.92 15.3668 19.12 15.1268 14.98ZM35.6909 9.94C38.4509 9.94 40.7309 12.22 40.7309 14.98V47.02C40.7309 49.78 38.4509 52.06 35.6909 52.06H29.7509C26.9909 52.06 24.7109 49.78 24.7109 47.02V14.98C24.7109 12.22 26.9909 9.94 29.7509 9.94H35.6909ZM33.2909 47.02C33.5309 42.64 33.7709 37.54 33.7709 31C33.7709 24.46 33.5309 19.36 33.2909 14.98H32.1509C31.8509 19.36 31.6109 24.46 31.6109 31C31.6109 37.54 31.8509 42.64 32.1509 47.02H33.2909ZM51.9949 10C52.8949 20.32 54.5749 29.86 55.5349 36.1H56.4949C55.8349 29.5 54.6349 19.96 53.9749 10H61.2949V52H52.2949C51.4549 41.68 49.7749 32.14 48.7549 25.9H47.7949C48.5149 32.5 49.6549 42.04 50.3149 52H42.9949V10H51.9949ZM72.1385 14.98H70.9985C70.6985 19.36 70.4585 24.46 70.4585 31C70.4585 37.54 70.6985 42.64 70.9985 47.02H72.1385C72.3785 43.24 72.5585 38.86 72.6185 33.52H71.4185V28.48H79.5785V47.02C79.5785 49.78 77.2985 52.06 74.5385 52.06H68.5985C65.8385 52.06 63.5585 49.78 63.5585 47.02V14.98C63.5585 12.22 65.8385 9.94 68.5985 9.94H74.5385C77.2985 9.94 79.5785 12.22 79.5785 14.98V26.5H72.5585C72.4985 22.06 72.3185 18.28 72.1385 14.98ZM97.6826 22.18C97.6826 27.58 96.1826 29.44 93.3626 31C97.0826 31.9 97.6826 38.26 97.6826 52H90.9626C90.9626 36.88 89.4026 33.52 89.4026 33.52H88.4426C88.9826 38.08 88.9826 40 88.9826 52H81.8426V10H91.6826C94.4426 10 97.6826 12.28 97.6826 15.04V22.18ZM89.4026 28.48C89.4026 28.48 90.6626 26.92 90.6626 21.76C90.6626 16.6 89.4626 15.04 89.4626 15.04H88.4426C88.4426 15.04 88.6826 16.6 88.6826 21.76C88.6826 26.92 88.4426 28.48 88.4426 28.48H89.4026ZM99.4709 52C99.4709 52 100.671 15.22 101.511 9.94H113.871C114.771 15.22 115.971 52 115.971 52H108.831V33.52H106.611V52H99.4709ZM108.771 28.48C108.771 23.14 108.531 18.76 108.291 14.98H107.151C106.851 18.76 106.671 23.14 106.611 28.48H108.771ZM130.655 15.04H127.415V52H120.275V15.04H117.095V10H130.655V15.04ZM148.075 47.02C148.075 49.78 145.795 52.06 143.035 52.06H137.095C134.335 52.06 132.055 49.78 132.055 47.02V10H138.955V31C138.955 37.54 139.195 42.64 139.495 47.02H140.635C140.875 42.64 141.115 37.54 141.115 31V10H148.075V47.02ZM150.339 52V10H157.419V46.96H159.399V52H150.339ZM160.643 52C160.643 52 161.843 15.22 162.683 9.94H175.043C175.943 15.22 177.143 52 177.143 52H170.003V33.52H167.783V52H160.643ZM169.943 28.48C169.943 23.14 169.703 18.76 169.463 14.98H168.323C168.023 18.76 167.843 23.14 167.783 28.48H169.943ZM191.827 15.04H188.587V52H181.447V15.04H178.267V10H191.827V15.04ZM200.426 10V52H193.346V10H200.426ZM213.699 9.94C216.459 9.94 218.739 12.22 218.739 14.98V47.02C218.739 49.78 216.459 52.06 213.699 52.06H207.759C204.999 52.06 202.719 49.78 202.719 47.02V14.98C202.719 12.22 204.999 9.94 207.759 9.94H213.699ZM211.299 47.02C211.539 42.64 211.779 37.54 211.779 31C211.779 24.46 211.539 19.36 211.299 14.98H210.159C209.859 19.36 209.619 24.46 209.619 31C209.619 37.54 209.859 42.64 210.159 47.02H211.299ZM230.003 10C230.903 20.32 232.583 29.86 233.543 36.1H234.503C233.843 29.5 232.643 19.96 231.983 10H239.303V52H230.303C229.463 41.68 227.783 32.14 226.763 25.9H225.803C226.523 32.5 227.663 42.04 228.323 52H221.003V10H230.003ZM250.086 14.98H248.946C248.706 18.76 248.466 23.14 248.406 28.48H252.306C255.846 28.48 257.526 31 257.526 33.52V47.02C257.526 49.78 255.246 52.06 252.486 52.06H246.546C243.786 52.06 241.506 49.78 241.506 47.02V35.5H248.466C248.466 38.86 248.706 43.78 248.946 47.02H250.086C250.266 43.24 250.506 38.86 250.566 33.52H246.666C243.126 33.52 241.506 31 241.506 28.48V14.98C241.506 12.22 243.786 9.94 246.546 9.94H252.486C255.246 9.94 257.526 12.22 257.526 14.98V26.5H250.506C250.506 23.14 250.266 18.22 250.086 14.98Z" fill="#495E10"/>
<path d="M83.235 65C83.235 78.14 80.775 88.22 78.675 92.12V107H71.535V92.12C69.435 88.22 66.915 78.14 66.915 65H73.935C73.935 77 74.235 82.4 74.535 87.08H75.615C75.915 82.4 76.215 77 76.215 65H83.235ZM95.8373 64.94C98.5973 64.94 100.877 67.22 100.877 69.98V102.02C100.877 104.78 98.5973 107.06 95.8373 107.06H89.8973C87.1373 107.06 84.8573 104.78 84.8573 102.02V69.98C84.8573 67.22 87.1373 64.94 89.8973 64.94H95.8373ZM93.4373 102.02C93.6773 97.64 93.9173 92.54 93.9173 86C93.9173 79.46 93.6773 74.36 93.4373 69.98H92.2973C91.9973 74.36 91.7573 79.46 91.7573 86C91.7573 92.54 91.9973 97.64 92.2973 102.02H93.4373ZM119.041 102.02C119.041 104.78 116.761 107.06 114.001 107.06H108.061C105.301 107.06 103.021 104.78 103.021 102.02V65H109.921V86C109.921 92.54 110.161 97.64 110.461 102.02H111.601C111.841 97.64 112.081 92.54 112.081 86V65H119.041V102.02ZM144.969 107C144.969 88.4 144.489 85.28 144.489 85.28H143.409C143.409 85.28 142.929 88.4 142.929 107H132.069L130.089 65H137.589V101.96H138.729C138.729 85.28 140.529 65 140.529 65H147.369C147.369 65 149.169 85.28 149.169 101.96H150.309V65H157.809L155.829 107H144.969ZM170.837 64.94C173.597 64.94 175.877 67.22 175.877 69.98V102.02C175.877 104.78 173.597 107.06 170.837 107.06H164.897C162.137 107.06 159.857 104.78 159.857 102.02V69.98C159.857 67.22 162.137 64.94 164.897 64.94H170.837ZM168.437 102.02C168.677 97.64 168.917 92.54 168.917 86C168.917 79.46 168.677 74.36 168.437 69.98H167.297C166.997 74.36 166.757 79.46 166.757 86C166.757 92.54 166.997 97.64 167.297 102.02H168.437ZM187.141 65C188.041 75.32 189.721 84.86 190.681 91.1H191.641C190.981 84.5 189.781 74.96 189.121 65H196.441V107H187.441C186.601 96.68 184.921 87.14 183.901 80.9H182.941C183.661 87.5 184.801 97.04 185.461 107H178.141V65H187.141Z" fill="#495E10"/>
</svg>
