<svg width="23" height="23" viewBox="0 0 23 23" fill="none" xmlns="http://www.w3.org/2000/svg">
<g clip-path="url(#clip0_34_1478)">
<path d="M5.56499 15.2443C6.0709 15.2443 6.48102 14.8342 6.48102 14.3283C6.48102 13.8224 6.0709 13.4123 5.56499 13.4123V15.2443ZM2.81689 12.4963H1.90086H2.81689ZM4.64896 2.41992V1.50389V2.41992ZM12.8932 2.41992V1.50389V2.41992ZM13.8093 5.16801C13.8093 5.67392 14.2194 6.08404 14.7253 6.08404C15.2312 6.08404 15.6413 5.67392 15.6413 5.16801H13.8093ZM11.0612 9.74817H19.3054V7.91611H11.0612V9.74817ZM19.3054 9.74817C19.8114 9.74817 20.2215 10.1583 20.2215 10.6642H22.0535C22.0535 9.14647 20.8232 7.91611 19.3054 7.91611V9.74817ZM20.2215 10.6642V18.9085H22.0535V10.6642H20.2215ZM20.2215 18.9085C20.2215 19.4144 19.8114 19.8245 19.3054 19.8245V21.6566C20.8232 21.6566 22.0535 20.4262 22.0535 18.9085H20.2215ZM19.3054 19.8245H11.0612V21.6566H19.3054V19.8245ZM11.0612 19.8245C10.5553 19.8245 10.1451 19.4144 10.1451 18.9085H8.31308C8.31308 20.4262 9.54344 21.6566 11.0612 21.6566V19.8245ZM10.1451 18.9085V10.6642H8.31308V18.9085H10.1451ZM10.1451 10.6642C10.1451 10.1583 10.5553 9.74817 11.0612 9.74817V7.91611C9.54344 7.91611 8.31308 9.14647 8.31308 10.6642H10.1451ZM5.56499 13.4123H4.64896V15.2443H5.56499V13.4123ZM4.64896 13.4123C4.40601 13.4123 4.17301 13.3158 4.00122 13.144L2.70576 14.4395C3.22113 14.9548 3.92012 15.2443 4.64896 15.2443V13.4123ZM4.00122 13.144C3.82943 12.9722 3.73293 12.7392 3.73293 12.4963H1.90086C1.90086 13.2251 2.19039 13.9241 2.70576 14.4395L4.00122 13.144ZM3.73293 12.4963V4.25198H1.90086V12.4963H3.73293ZM3.73293 4.25198C3.73293 4.00904 3.82944 3.77604 4.00122 3.60425L2.70576 2.30879C2.19039 2.82416 1.90086 3.52314 1.90086 4.25198H3.73293ZM4.00122 3.60425C4.17301 3.43246 4.40601 3.33595 4.64896 3.33595V1.50389C3.92012 1.50389 3.22113 1.79342 2.70576 2.30879L4.00122 3.60425ZM4.64896 3.33595H12.8932V1.50389H4.64896V3.33595ZM12.8932 3.33595C13.1362 3.33595 13.3692 3.43246 13.541 3.60425L14.8364 2.30879C14.3211 1.79342 13.6221 1.50389 12.8932 1.50389V3.33595ZM13.541 3.60425C13.7128 3.77604 13.8093 4.00904 13.8093 4.25198H15.6413C15.6413 3.52314 15.3518 2.82416 14.8364 2.30879L13.541 3.60425ZM13.8093 4.25198V5.16801H15.6413V4.25198H13.8093Z" fill="#101828"/>
</g>
<defs>
<clipPath id="clip0_34_1478">
<rect width="21.9847" height="21.9847" fill="white" transform="translate(0.984863 0.587891)"/>
</clipPath>
</defs>
</svg>
