<svg width="8" height="8" viewBox="0 0 8 8" fill="none" xmlns="http://www.w3.org/2000/svg">
<g clip-path="url(#clip0_62_29)">
<path fill-rule="evenodd" clip-rule="evenodd" d="M3.29999 0.699963C3.29999 0.534278 3.4343 0.399963 3.59999 0.399963H4.79999C4.96567 0.399963 5.09999 0.534278 5.09999 0.699963C5.09999 0.865649 4.96567 0.999963 4.79999 0.999963H3.59999C3.4343 0.999963 3.29999 0.865649 3.29999 0.699963Z" fill="#344054"/>
<path fill-rule="evenodd" clip-rule="evenodd" d="M5.31213 3.18784C5.42928 3.305 5.42928 3.49495 5.31213 3.61211L4.41213 4.51211C4.29497 4.62927 4.10502 4.62927 3.98786 4.51211C3.8707 4.39495 3.8707 4.205 3.98786 4.08784L4.88786 3.18784C5.00502 3.07069 5.19497 3.07069 5.31213 3.18784Z" fill="#344054"/>
<path fill-rule="evenodd" clip-rule="evenodd" d="M4.2 2.19998C3.0402 2.19998 2.1 3.14018 2.1 4.29998C2.1 5.45977 3.0402 6.39998 4.2 6.39998C5.3598 6.39998 6.3 5.45977 6.3 4.29998C6.3 3.14018 5.3598 2.19998 4.2 2.19998ZM1.5 4.29998C1.5 2.80881 2.70883 1.59998 4.2 1.59998C5.69117 1.59998 6.9 2.80881 6.9 4.29998C6.9 5.79114 5.69117 6.99998 4.2 6.99998C2.70883 6.99998 1.5 5.79114 1.5 4.29998Z" fill="#344054"/>
</g>
<defs>
<clipPath id="clip0_62_29">
<rect width="7.2" height="7.2" fill="white" transform="translate(0.600006 0.0999756)"/>
</clipPath>
</defs>
</svg>
